<?xml version="1.0" encoding="utf-8" standalone="yes"?>
<!DOCTYPE svg PUBLIC "-//W3C//DTD SVG 1.1//EN" "http://www.w3.org/Graphics/SVG/1.1/DTD/svg11.dtd">
<svg width="1104" height="1214" viewBox="0 0 1104 1214" style="fill:none;stroke:none;fill-rule:evenodd;clip-rule:evenodd;stroke-linecap:round;stroke-linejoin:round;stroke-miterlimit:1.5;" version="1.1" xmlns="http://www.w3.org/2000/svg" xmlns:xlink="http://www.w3.org/1999/xlink"><style class="text-font-style fontImports" data-font-family="Roboto">@import url(https://fonts.googleapis.com/css2?family=Roboto:wght@400;700&amp;amp;display=block);</style><g id="items" style="isolation: isolate"><g id="blend" style="mix-blend-mode: normal"><g id="g-root-cp_6_fill-6_1hf3gxm1r1s45n-fill" data-item-order="-1179539" transform="translate(914, 158.010009765625)"></g><g id="g-root-cp_6_right-6_1cz9yt61r1s4xw-fill" data-item-order="-1179535" transform="translate(770, 122)"></g><g id="g-root-cp_6_dashed-stroke-6_143myka1r1s5ql-fill" data-item-order="-1179531" transform="translate(902, 146.010009765625)"></g><g id="g-root-cp_6_left-6_143myka1r1s5qm-fill" data-item-order="-1179527" transform="translate(445.99200439453125, 145)"></g><g id="g-root-cp_5_fill-5_zntgfu1r1s6iv-fill" data-item-order="-1179497" transform="translate(746, 326.010009765625)"></g><g id="g-root-cp_5_right-5_zntgfu1r1s6iw-fill" data-item-order="-1179493" transform="translate(602, 290)"></g><g id="g-root-cp_5_dashed-stroke-5_v8mfei1r1s45d-fill" data-item-order="-1179489" transform="translate(734, 314.010009765625)"></g><g id="g-root-cp_5_left-5_v8mfei1r1s45e-fill" data-item-order="-1179485" transform="translate(277.99200439453125, 301)"></g><g id="g-root-cp_4_fill-4_mczf5m1r1s4y3-fill" data-item-order="-1179455" transform="translate(575, 497.010009765625)"></g><g id="g-root-cp_4_right-4_1qbzfcq1r1s5j8-fill" data-item-order="-1179451" transform="translate(431, 461)"></g><g id="g-root-cp_4_dashed-stroke-4_1hgcf3u1r1s6bx-fill" data-item-order="-1179447" transform="translate(563, 485.010009765625)"></g><g id="g-root-cp_4_left-4_1d15e2i1r1s3ye-fill" data-item-order="-1179443" transform="translate(106.99200439453125, 484)"></g><g id="g-root-cp_3_fill-3_145idtm1r1s4r3-fill" data-item-order="-1179413" transform="translate(410, 662)"></g><g id="g-root-cp_3_dashed-stroke-3_18lbvy21r1s4qo-fill" data-item-order="-1179409" transform="translate(398, 650)"></g><g id="g-root-cp_3_stroke-3_zpovp61r1s5jd-fill" data-item-order="-1179405" transform="translate(374, 620)"></g><g id="g-root-cp_3_right-3_zpovp61r1s5je-fill" data-item-order="-1179401" transform="translate(649.99560546875, 650)"></g><g id="g-root-cp_2_fill-2_v9vdkq1r1s6bn-fill" data-item-order="-1179371" transform="translate(242, 830)"></g><g id="g-root-cp_2_dashed-stroke-2_v9vdkq1r1s6bo-fill" data-item-order="-1179367" transform="translate(230, 818)"></g><g id="g-root-cp_2_stroke-2_meuuey1r1s3yl-fill" data-item-order="-1179363" transform="translate(206, 788)"></g><g id="g-root-cp_2_right-2_meuuey1r1s3ym-fill" data-item-order="-1179359" transform="translate(481.99560546875, 818)"></g><g id="g-root-cp_1_fill-1_hz1cai1r1s4qv-fill" data-item-order="-1179329" transform="translate(74, 998)"></g><g id="g-root-cp_1_dashed-stroke-1_hz1cai1r1s4qw-fill" data-item-order="-1179325" transform="translate(62, 986)"></g><g id="g-root-cp_1_stroke-1_hz1cai1r1s4qx-fill" data-item-order="-1179321" transform="translate(38, 956)"></g><g id="g-root-cp_1_right-1_dj7u621r1s5j6-fill" data-item-order="-1179317" transform="translate(313.99560546875, 974)"></g><g id="g-root-tx_storesan_mdlzei1r1gvlx-fill" data-item-order="0" transform="translate(143, 545)"><g id="tx_storesan_mdlzei1r1gvlx-fill" stroke="none" fill="#a6da37"><g><text style="font: 15px Roboto, sans-serif; white-space: pre;" font-size="15px" font-family="Roboto, sans-serif"><tspan x="22.9" y="27.6" dominant-baseline="ideographic">Stores and retrieves relevant </tspan><tspan x="158.14" y="45.6" dominant-baseline="ideographic">context.</tspan></text></g></g></g><g id="g-root-tx_4_dhyz5m1r1gwen-fill" data-item-order="0" transform="translate(611, 527)"><g id="tx_4_dhyz5m1r1gwen-fill" stroke="none" fill="#f4f4f4"><g><text style="font: 30px Roboto, sans-serif; white-space: pre;" font-size="30px" font-family="Roboto, sans-serif"><tspan x="13.57" y="46" dominant-baseline="ideographic">4</tspan></text></g></g></g><g id="g-root-ic_sear_925h161r1gx6w-fill" data-item-order="0" transform="translate(359, 515)"></g><g id="g-root-tx_vectordb_qst0fu1r1gxzg-fill" data-item-order="0" transform="translate(275, 509)"><g id="tx_vectordb_qst0fu1r1gxzg-fill" stroke="none" fill="#a6da37"><g><text style="font: bold 15px Roboto, sans-serif; white-space: pre;" font-weight="bold" font-size="15px" font-family="Roboto, sans-serif"><tspan x="12.71" y="30.6" dominant-baseline="ideographic">Vector DB</tspan></text></g></g></g><g id="g-root-tx_5_1lr64je1r1uz9h-fill" data-item-order="0" transform="translate(782, 356)"><g id="tx_5_1lr64je1r1uz9h-fill" stroke="none" fill="#f4f4f4"><g><text style="font: 30px Roboto, sans-serif; white-space: pre;" font-size="30px" font-family="Roboto, sans-serif"><tspan x="13.57" y="46" dominant-baseline="ideographic">5</tspan></text></g></g></g><g id="g-root-ic_side_4o7e621r1jq4i-fill" data-item-order="0" transform="translate(662, 680)"></g><g id="g-root-tx_3_quofp61r1jq4t-fill" data-item-order="0" transform="translate(446, 692)"><g id="tx_3_quofp61r1jq4t-fill" stroke="none" fill="#f4f4f4"><g><text style="font: 30px Roboto, sans-serif; white-space: pre;" font-size="30px" font-family="Roboto, sans-serif"><tspan x="13.57" y="46" dominant-baseline="ideographic">3</tspan></text></g></g></g><g id="g-root-tx_managesr_940wai1r1jpc9-fill" data-item-order="0" transform="translate(734, 710)"><g id="tx_managesr_940wai1r1jpc9-fill" stroke="none" fill="#43dd93"><g><text style="font: 15px Roboto, sans-serif; white-space: pre;" font-size="15px" font-family="Roboto, sans-serif"><tspan x="12" y="27.6" dominant-baseline="ideographic">Manages reasoning and task </tspan><tspan x="12" y="45.6" dominant-baseline="ideographic">routing.</tspan></text></g></g></g><g id="g-root-tx_performs_1ikxm1r1uxvn-fill" data-item-order="0" transform="translate(362, 362)"><g id="tx_performs_1ikxm1r1uxvn-fill" stroke="none" fill="#ffe711"><g><text style="font: 15px Roboto, sans-serif; white-space: pre;" font-size="15px" font-family="Roboto, sans-serif"><tspan x="16.49" y="30.6" dominant-baseline="ideographic">Performs code review, </tspan><tspan x="61.46" y="48.6" dominant-baseline="ideographic">generation, and </tspan><tspan x="59.05" y="66.6" dominant-baseline="ideographic">documentation.</tspan></text></g></g></g><g id="g-root-ic_code_18gc3961r1uxon-fill" data-item-order="0" transform="translate(530, 344)"></g><g id="g-root-tx_nexussys_4nktx61r1s6bv-fill" data-item-order="0" transform="translate(380, 38)"><g id="tx_nexussys_4nktx61r1s6bv-fill" stroke="none" fill="#f4f4f4"><g><text style="font: bold 25px Roboto, sans-serif; white-space: pre;" font-weight="bold" font-size="25px" font-family="Roboto, sans-serif"><tspan x="14.23" y="42.6" dominant-baseline="ideographic">NEXUS System Architecture</tspan></text></g></g></g><g id="g-root-tx_githubwo_8dsvu1r1s3yc-fill" data-item-order="0" transform="translate(566, 170)"><g id="tx_githubwo_8dsvu1r1s3yc-fill" stroke="none" fill="#f79438"><g><text style="font: bold 15px Roboto, sans-serif; white-space: pre;" font-weight="bold" font-size="15px" font-family="Roboto, sans-serif"><tspan x="14.03" y="30.6" dominant-baseline="ideographic">GitHub Workflow</tspan></text></g></g></g><g id="g-root-tx_2_1lto41m1r1uz2e-fill" data-item-order="0" transform="translate(278, 860)"><g id="tx_2_1lto41m1r1uz2e-fill" stroke="none" fill="#f4f4f4"><g><text style="font: 30px Roboto, sans-serif; white-space: pre;" font-size="30px" font-family="Roboto, sans-serif"><tspan x="13.57" y="46" dominant-baseline="ideographic">2</tspan></text></g></g></g><g id="g-root-ic_hand_59im21r1uzut-fill" data-item-order="0" transform="translate(494, 848)"></g><g id="g-root-tx_fastapis_qrk29m1r1uzup-fill" data-item-order="0" transform="translate(566, 842)"><g id="tx_fastapis_qrk29m1r1uzup-fill" stroke="none" fill="#1ac3fb"><g><text style="font: bold 15px Roboto, sans-serif; white-space: pre;" font-weight="bold" font-size="15px" font-family="Roboto, sans-serif"><tspan x="12" y="30.6" dominant-baseline="ideographic">FastAPI Service</tspan></text></g></g></g><g id="g-root-tx_handlesa_4l30qi1r1uz2j-fill" data-item-order="0" transform="translate(566, 878)"><g id="tx_handlesa_4l30qi1r1uz2j-fill" stroke="none" fill="#1ac3fb"><g><text style="font: 15px Roboto, sans-serif; white-space: pre;" font-size="15px" font-family="Roboto, sans-serif"><tspan x="12" y="27.6" dominant-baseline="ideographic">Handles API requests from </tspan><tspan x="12" y="45.6" dominant-baseline="ideographic">the UI.</tspan></text></g></g></g><g id="g-root-tx_geminimo_4hc3221r1ux3e-fill" data-item-order="0" transform="translate(410, 326)"><g id="tx_geminimo_4hc3221r1ux3e-fill" stroke="none" fill="#ffe711"><g><text style="font: bold 15px Roboto, sans-serif; white-space: pre;" font-weight="bold" font-size="15px" font-family="Roboto, sans-serif"><tspan x="22.49" y="30.6" dominant-baseline="ideographic">Gemini Model</tspan></text></g></g></g><g id="g-root-ic_1_mg3sl61r1s64v-fill" data-item-order="0" transform="translate(698, 176)"></g><g id="g-root-tx_userinte_4g3b7e1r1uzns-fill" data-item-order="0" transform="translate(398, 1034)"><g id="tx_userinte_4g3b7e1r1uzns-fill" stroke="none" fill="#4f91fc"><g><text style="font: 15px Roboto, sans-serif; white-space: pre;" font-size="15px" font-family="Roboto, sans-serif"><tspan x="12" y="30.6" dominant-baseline="ideographic">User interacts with the </tspan><tspan x="12" y="48.6" dominant-baseline="ideographic">interface to input code or </tspan><tspan x="12" y="66.6" dominant-baseline="ideographic">requirements.</tspan></text></g></g></g><g id="g-root-tx_integrat_1qduum21r1s4jx-fill" data-item-order="0" transform="translate(482, 206)"><g id="tx_integrat_1qduum21r1s4jx-fill" stroke="none" fill="#f79438"><g><text style="font: 15px Roboto, sans-serif; white-space: pre;" font-size="15px" font-family="Roboto, sans-serif"><tspan x="18.1" y="27.6" dominant-baseline="ideographic">Integrates with GitHub for PR </tspan><tspan x="100.84" y="45.6" dominant-baseline="ideographic">and code review.</tspan></text></g></g></g><g id="g-root-tx_streamli_hrjtkq1r1uy2v-fill" data-item-order="0" transform="translate(398, 998)"><g id="tx_streamli_hrjtkq1r1uy2v-fill" stroke="none" fill="#4f91fc"><g><text style="font: bold 15px Roboto, sans-serif; white-space: pre;" font-weight="bold" font-size="15px" font-family="Roboto, sans-serif"><tspan x="12" y="30.6" dominant-baseline="ideographic">Streamlit UI</tspan></text></g></g></g><g id="g-root-tx_1_18ntym21r1tjid-fill" data-item-order="0" transform="translate(110, 1028)"><g id="tx_1_18ntym21r1tjid-fill" stroke="none" fill="#f4f4f4"><g><text style="font: 30px Roboto, sans-serif; white-space: pre;" font-size="30px" font-family="Roboto, sans-serif"><tspan x="13.57" y="46" dominant-baseline="ideographic">1</tspan></text></g></g></g><g id="g-root-ic_2_1lqjtru1r1uyo1-fill" data-item-order="0" transform="translate(326, 1016)"></g><g id="g-root-tx_6_18mku4a1r1s6x2-fill" data-item-order="0" transform="translate(950, 188)"><g id="tx_6_18mku4a1r1s6x2-fill" stroke="none" fill="#f4f4f4"><g><text style="font: 30px Roboto, sans-serif; white-space: pre;" font-size="30px" font-family="Roboto, sans-serif"><tspan x="13.57" y="46" dominant-baseline="ideographic">6</tspan></text></g></g></g><g id="g-root-tx_langchai_djueey1r1jojz-fill" data-item-order="0" transform="translate(734, 674)"><g id="tx_langchai_djueey1r1jojz-fill" stroke="none" fill="#43dd93"><g><text style="font: bold 15px Roboto, sans-serif; white-space: pre;" font-weight="bold" font-size="15px" font-family="Roboto, sans-serif"><tspan x="12" y="30.6" dominant-baseline="ideographic">LangChain Agent</tspan></text></g></g></g><g id="g-root-cp_6_fill-6_1hf3gxm1r1s45n-stroke" data-item-order="-1179539" transform="translate(914, 158.010009765625)"></g><g id="g-root-cp_6_right-6_1cz9yt61r1s4xw-stroke" data-item-order="-1179535" transform="translate(770, 122)"><g id="cp_6_right-6_1cz9yt61r1s4xw-stroke" fill="none" stroke-linecap="round" stroke-linejoin="round" stroke-miterlimit="4" stroke="#f4f4f4" stroke-width="2"><g><path d="M 286 92.01C 286 92.34 286 94.68 286 95.01C 285.46 140.94 248.06 178.01 202.01 178.01C 178.81 178.01 157.81 168.61 142.61 153.41L 112 184.01M 10 94.01L 118 94.01C 118 93.68 118 92.34 118 92.01M 285.99 92C 285.99 46.16 248.38 10 201.99 10C 155.6 10 118.53 46.63 118 92.01M 202 142.01C 228.51 142.01 250 120.52 250 94.01C 250 67.5 228.51 46.01 202 46.01C 175.49 46.01 154 67.5 154 94.01C 154 120.52 175.49 142.01 202 142.01Z"></path></g></g></g><g id="g-root-cp_6_dashed-stroke-6_143myka1r1s5ql-stroke" data-item-order="-1179531" transform="translate(902, 146.010009765625)"><g id="cp_6_dashed-stroke-6_143myka1r1s5ql-stroke" fill="none" stroke-linecap="round" stroke-linejoin="round" stroke-miterlimit="4" stroke="#f4f4f4" stroke-width="2" stroke-dasharray="5.0, 7.0"><g><path d="M 130 70C 130 103.14 103.14 130 70 130C 36.86 130 10 103.14 10 70C 10 36.86 36.86 10 70 10C 103.14 10 130 36.86 130 70Z"></path></g></g></g><g id="g-root-cp_6_left-6_143myka1r1s5qm-stroke" data-item-order="-1179527" transform="translate(445.99200439453125, 145)"><g id="cp_6_left-6_143myka1r1s5qm-stroke" fill="none" stroke-linecap="round" stroke-linejoin="round" stroke-miterlimit="4" stroke="#f79438" stroke-width="2"><g><path d="M 334.01 77L 334.01 78.4001C 334.01 107.4501 310.46 131 281.41 131L 62.6 131C 33.55 131 10 107.45 10 78.4L 10.01 78.4L 10.01 77M 10.01002 77L 10.01002 64M 334.01001 64L 334.01001 77M 10 64L 10 62.6C 10 33.55 33.5501 10 62.6 10L 281.41 10C 310.46 10 334.01 33.55 334.01 62.6L 334.01 64L 334 64"></path></g></g></g><g id="g-root-cp_5_fill-5_zntgfu1r1s6iv-stroke" data-item-order="-1179497" transform="translate(746, 326.010009765625)"></g><g id="g-root-cp_5_right-5_zntgfu1r1s6iw-stroke" data-item-order="-1179493" transform="translate(602, 290)"><g id="cp_5_right-5_zntgfu1r1s6iw-stroke" fill="none" stroke-linecap="round" stroke-linejoin="round" stroke-miterlimit="4" stroke="#f4f4f4" stroke-width="2"><g><path d="M 286 92.01C 286 92.34 286 94.68 286 95.01C 285.46 140.94 248.06 178.01 202.01 178.01C 178.81 178.01 157.81 168.61 142.61 153.41L 112 184.01M 10 94.01L 118 94.01C 118 93.68 118 92.34 118 92.01M 285.99 92C 285.99 46.16 248.38 10 201.99 10C 155.6 10 118.53 46.63 118 92.01M 202 142.01C 228.51 142.01 250 120.52 250 94.01C 250 67.5 228.51 46.01 202 46.01C 175.49 46.01 154 67.5 154 94.01C 154 120.52 175.49 142.01 202 142.01Z"></path></g></g></g><g id="g-root-cp_5_dashed-stroke-5_v8mfei1r1s45d-stroke" data-item-order="-1179489" transform="translate(734, 314.010009765625)"><g id="cp_5_dashed-stroke-5_v8mfei1r1s45d-stroke" fill="none" stroke-linecap="round" stroke-linejoin="round" stroke-miterlimit="4" stroke="#f4f4f4" stroke-width="2" stroke-dasharray="5.0, 7.0"><g><path d="M 130 70C 130 103.14 103.14 130 70 130C 36.86 130 10 103.14 10 70C 10 36.86 36.86 10 70 10C 103.14 10 130 36.86 130 70Z"></path></g></g></g><g id="g-root-cp_5_left-5_v8mfei1r1s45e-stroke" data-item-order="-1179485" transform="translate(277.99200439453125, 301)"><g id="cp_5_left-5_v8mfei1r1s45e-stroke" fill="none" stroke-linecap="round" stroke-linejoin="round" stroke-miterlimit="4" stroke="#ffe711" stroke-width="2"><g><path d="M 334.01 101L 334.01 102.4001C 334.01 131.4501 310.46 155 281.41 155L 62.6 155C 33.55 155 10 131.45 10 102.4L 10.01 102.4L 10.01 101M 10.01002 101L 10.01002 64M 334.01001 64L 334.01001 101M 10 64L 10 62.6C 10 33.55 33.5501 10 62.6 10L 281.41 10C 310.46 10 334.01 33.55 334.01 62.6L 334.01 64L 334 64"></path></g></g></g><g id="g-root-cp_4_fill-4_mczf5m1r1s4y3-stroke" data-item-order="-1179455" transform="translate(575, 497.010009765625)"></g><g id="g-root-cp_4_right-4_1qbzfcq1r1s5j8-stroke" data-item-order="-1179451" transform="translate(431, 461)"><g id="cp_4_right-4_1qbzfcq1r1s5j8-stroke" fill="none" stroke-linecap="round" stroke-linejoin="round" stroke-miterlimit="4" stroke="#f4f4f4" stroke-width="2"><g><path d="M 286 92.01C 286 92.34 286 94.68 286 95.01C 285.46 140.94 248.06 178.01 202.01 178.01C 178.81 178.01 157.81 168.61 142.61 153.41L 112 184.01M 10 94.01L 118 94.01C 118 93.68 118 92.34 118 92.01M 285.99 92C 285.99 46.16 248.38 10 201.99 10C 155.6 10 118.53 46.63 118 92.01M 202 142.01C 228.51 142.01 250 120.52 250 94.01C 250 67.5 228.51 46.01 202 46.01C 175.49 46.01 154 67.5 154 94.01C 154 120.52 175.49 142.01 202 142.01Z"></path></g></g></g><g id="g-root-cp_4_dashed-stroke-4_1hgcf3u1r1s6bx-stroke" data-item-order="-1179447" transform="translate(563, 485.010009765625)"><g id="cp_4_dashed-stroke-4_1hgcf3u1r1s6bx-stroke" fill="none" stroke-linecap="round" stroke-linejoin="round" stroke-miterlimit="4" stroke="#f4f4f4" stroke-width="2" stroke-dasharray="5.0, 7.0"><g><path d="M 130 70C 130 103.14 103.14 130 70 130C 36.86 130 10 103.14 10 70C 10 36.86 36.86 10 70 10C 103.14 10 130 36.86 130 70Z"></path></g></g></g><g id="g-root-cp_4_left-4_1d15e2i1r1s3ye-stroke" data-item-order="-1179443" transform="translate(106.99200439453125, 484)"><g id="cp_4_left-4_1d15e2i1r1s3ye-stroke" fill="none" stroke-linecap="round" stroke-linejoin="round" stroke-miterlimit="4" stroke="#a6da37" stroke-width="2"><g><path d="M 334.01 77L 334.01 78.4001C 334.01 107.4501 310.46 131 281.41 131L 62.6 131C 33.55 131 10 107.45 10 78.4L 10.01 78.4L 10.01 77M 10.01002 77L 10.01002 64M 334.01001 64L 334.01001 77M 10 64L 10 62.6C 10 33.55 33.5501 10 62.6 10L 281.41 10C 310.46 10 334.01 33.55 334.01 62.6L 334.01 64L 334 64"></path></g></g></g><g id="g-root-cp_3_fill-3_145idtm1r1s4r3-stroke" data-item-order="-1179413" transform="translate(410, 662)"></g><g id="g-root-cp_3_dashed-stroke-3_18lbvy21r1s4qo-stroke" data-item-order="-1179409" transform="translate(398, 650)"><g id="cp_3_dashed-stroke-3_18lbvy21r1s4qo-stroke" fill="none" stroke-linecap="round" stroke-linejoin="round" stroke-miterlimit="4" stroke="#f4f4f4" stroke-width="2" stroke-dasharray="5.0, 7.0"><g><path d="M 130 70C 130 36.86 103.14 10 70 10C 36.86 10 10 36.86 10 70C 10 102.5877 36.8595 129 69.999 129C 103.1384 129 129.9979 102.5877 129.9979 70"></path></g></g></g><g id="g-root-cp_3_stroke-3_zpovp61r1s5jd-stroke" data-item-order="-1179405" transform="translate(374, 620)"><g id="cp_3_stroke-3_zpovp61r1s5jd-stroke" fill="none" stroke-linecap="round" stroke-linejoin="round" stroke-miterlimit="4" stroke="#f4f4f4" stroke-width="2"><g><path d="M 10 102C 10 101.67 10 99.33 10 99C 10.54 53.07 47.94 16 93.99 16C 117.19 16 138.19 25.4 153.39 40.6L 184 10M 286 100L 178 100C 178 100.33 178 101.67 178 102M 10 102.01C 10 147.8444 47.6122 184 94.005 184C 140.3978 184 177.47 147.3745 178 102M 142 100C 142 73.49 120.51 52 94 52C 67.49 52 46 73.49 46 100C 46 126.0682 67.4894 147.2 93.999 147.2C 120.5085 147.2 141.9981 126.0682 141.9981 100"></path></g></g></g><g id="g-root-cp_3_right-3_zpovp61r1s5je-stroke" data-item-order="-1179401" transform="translate(649.99560546875, 650)"><g id="cp_3_right-3_zpovp61r1s5je-stroke" fill="none" stroke-linecap="round" stroke-linejoin="round" stroke-miterlimit="4" stroke="#43dd93" stroke-width="2"><g><path d="M 10.004395 64L 10.004395 62.6C 10.004395 33.55 33.554395 10 62.604395 10L 281.414395 10C 310.464395 10 334.014395 33.55 334.014395 62.6L 334.004395 62.6L 334.004395 64M 334.004395 64L 334.004395 77M 10.004395 77L 10.004395 64M 334.004416 77L 334.004416 78.3767C 334.004416 106.9425 310.454816 130.1 281.405316 130.1L 62.599116 130.1C 33.549616 130.1 10.000016 106.9425 10.000016 78.3767L 10.000016 77L 10.010016 77"></path></g></g></g><g id="g-root-cp_2_fill-2_v9vdkq1r1s6bn-stroke" data-item-order="-1179371" transform="translate(242, 830)"></g><g id="g-root-cp_2_dashed-stroke-2_v9vdkq1r1s6bo-stroke" data-item-order="-1179367" transform="translate(230, 818)"><g id="cp_2_dashed-stroke-2_v9vdkq1r1s6bo-stroke" fill="none" stroke-linecap="round" stroke-linejoin="round" stroke-miterlimit="4" stroke="#f4f4f4" stroke-width="2" stroke-dasharray="5.0, 7.0"><g><path d="M 130 70C 130 36.86 103.14 10 70 10C 36.86 10 10 36.86 10 70C 10 102.5877 36.8595 129 69.999 129C 103.1384 129 129.9979 102.5877 129.9979 70"></path></g></g></g><g id="g-root-cp_2_stroke-2_meuuey1r1s3yl-stroke" data-item-order="-1179363" transform="translate(206, 788)"><g id="cp_2_stroke-2_meuuey1r1s3yl-stroke" fill="none" stroke-linecap="round" stroke-linejoin="round" stroke-miterlimit="4" stroke="#f4f4f4" stroke-width="2"><g><path d="M 10 102C 10 101.67 10 99.33 10 99C 10.54 53.07 47.94 16 93.99 16C 117.19 16 138.19 25.4 153.39 40.6L 184 10M 286 100L 178 100C 178 100.33 178 101.67 178 102M 10 102.01C 10 147.8444 47.6122 184 94.005 184C 140.3978 184 177.47 147.3745 178 102M 142 100C 142 73.49 120.51 52 94 52C 67.49 52 46 73.49 46 100C 46 126.0682 67.4894 147.2 93.999 147.2C 120.5085 147.2 141.9981 126.0682 141.9981 100"></path></g></g></g><g id="g-root-cp_2_right-2_meuuey1r1s3ym-stroke" data-item-order="-1179359" transform="translate(481.99560546875, 818)"><g id="cp_2_right-2_meuuey1r1s3ym-stroke" fill="none" stroke-linecap="round" stroke-linejoin="round" stroke-miterlimit="4" stroke="#1ac3fb" stroke-width="2"><g><path d="M 10.004395 64L 10.004395 62.6C 10.004395 33.55 33.554395 10 62.604395 10L 281.414395 10C 310.464395 10 334.014395 33.55 334.014395 62.6L 334.004395 62.6L 334.004395 64M 334.004395 64L 334.004395 77M 10.004395 77L 10.004395 64M 334.004416 77L 334.004416 78.3767C 334.004416 106.9425 310.454816 130.1 281.405316 130.1L 62.599116 130.1C 33.549616 130.1 10.000016 106.9425 10.000016 78.3767L 10.000016 77L 10.010016 77"></path></g></g></g><g id="g-root-cp_1_fill-1_hz1cai1r1s4qv-stroke" data-item-order="-1179329" transform="translate(74, 998)"></g><g id="g-root-cp_1_dashed-stroke-1_hz1cai1r1s4qw-stroke" data-item-order="-1179325" transform="translate(62, 986)"><g id="cp_1_dashed-stroke-1_hz1cai1r1s4qw-stroke" fill="none" stroke-linecap="round" stroke-linejoin="round" stroke-miterlimit="4" stroke="#f4f4f4" stroke-width="2" stroke-dasharray="5.0, 7.0"><g><path d="M 130 70C 130 36.86 103.14 10 70 10C 36.86 10 10 36.86 10 70C 10 102.5877 36.8595 129 69.999 129C 103.1384 129 129.9979 102.5877 129.9979 70"></path></g></g></g><g id="g-root-cp_1_stroke-1_hz1cai1r1s4qx-stroke" data-item-order="-1179321" transform="translate(38, 956)"><g id="cp_1_stroke-1_hz1cai1r1s4qx-stroke" fill="none" stroke-linecap="round" stroke-linejoin="round" stroke-miterlimit="4" stroke="#f4f4f4" stroke-width="2"><g><path d="M 10 102C 10 101.67 10 99.33 10 99C 10.54 53.07 47.94 16 93.99 16C 117.19 16 138.19 25.4 153.39 40.6L 184 10M 286 100L 178 100C 178 100.33 178 101.67 178 102M 10 102.01C 10 147.8444 47.6122 184 94.005 184C 140.3978 184 177.47 147.3745 178 102M 142 100C 142 73.49 120.51 52 94 52C 67.49 52 46 73.49 46 100C 46 126.0682 67.4894 147.2 93.999 147.2C 120.5085 147.2 141.9981 126.0682 141.9981 100"></path></g></g></g><g id="g-root-cp_1_right-1_dj7u621r1s5j6-stroke" data-item-order="-1179317" transform="translate(313.99560546875, 974)"><g id="cp_1_right-1_dj7u621r1s5j6-stroke" fill="none" stroke-linecap="round" stroke-linejoin="round" stroke-miterlimit="4" stroke="#4f91fc" stroke-width="2"><g><path d="M 10.004395 64L 10.004395 62.6C 10.004395 33.55 33.554395 10 62.604395 10L 281.414395 10C 310.464395 10 334.014395 33.55 334.014395 62.6L 334.004395 62.6L 334.004395 64M 334.004395 64L 334.004395 101M 10.004395 101L 10.004395 64M 334.004416 100.999992L 334.004416 102.376692C 334.004416 130.942492 310.454816 154.099992 281.405316 154.099992L 62.599116 154.099992C 33.549616 154.099992 10.000016 130.942492 10.000016 102.376692L 10.000016 100.999992L 10.010016 100.999992"></path></g></g></g><g id="g-root-tx_storesan_mdlzei1r1gvlx-stroke" data-item-order="0" transform="translate(143, 545)"></g><g id="g-root-tx_4_dhyz5m1r1gwen-stroke" data-item-order="0" transform="translate(611, 527)"></g><g id="g-root-ic_sear_925h161r1gx6w-stroke" data-item-order="0" transform="translate(359, 515)"><g id="ic_sear_925h161r1gx6w-stroke" fill="none" stroke-linecap="round" stroke-linejoin="round" stroke-miterlimit="4" stroke="#a6da37" stroke-width="2"><g><path d="M 11.3025 21.252501C 11.3025 26.775347 21.935738 31.252501 35.052498 31.252501C 48.169262 31.252501 58.802498 26.775347 58.802498 21.252501C 58.802498 15.729652 48.169262 11.2525 35.052498 11.2525C 21.935738 11.2525 11.3025 15.729652 11.3025 21.252501ZM 38.802498 41.125C 37.579998 41.2075 36.327499 41.252502 35.052498 41.252502C 21.9375 41.252502 11.3025 36.7775 11.3025 31.252501M 35.052498 52.5C 21.9375 52.5 11.3025 48.025002 11.3025 42.5M 35.052498 63.75C 21.9375 63.75 11.3025 59.274998 11.3025 53.75L 11.3025 21.25M 58.802498 21.252501L 58.802498 35.002502M 41.300003 52.575001C 41.299999 58.828243 46.369255 63.897499 52.622498 63.897499C 58.87574 63.897499 63.945 58.828243 63.945 52.574997C 63.945 46.321754 58.87574 41.252499 52.622498 41.252499C 46.369255 41.252499 41.299999 46.321754 41.299999 52.574997ZM 68.800003 68.752502L 60.68 60.6325"></path></g></g></g><g id="g-root-tx_vectordb_qst0fu1r1gxzg-stroke" data-item-order="0" transform="translate(275, 509)"></g><g id="g-root-tx_5_1lr64je1r1uz9h-stroke" data-item-order="0" transform="translate(782, 356)"></g><g id="g-root-ic_side_4o7e621r1jq4i-stroke" data-item-order="0" transform="translate(662, 680)"><g id="ic_side_4o7e621r1jq4i-stroke" fill="none" stroke-linecap="round" stroke-linejoin="round" stroke-miterlimit="4" stroke="#43dd93" stroke-width="2"><g><path d="M 19.060051 24.875025C 21.131124 24.875025 22.810051 23.1961 22.810051 21.125025C 22.810051 19.053974 21.131124 17.375025 19.060051 17.375025C 16.989 17.375025 15.31005 19.053974 15.31005 21.125025C 15.31005 23.1961 16.989 24.875025 19.060051 24.875025ZM 10 10M 22.810051 21.125025L 36.244999 21.125025M 15.625 43.625C 17.696075 43.625 19.375 41.945999 19.375 39.875C 19.375 37.804001 17.696075 36.125 15.625 36.125C 13.553925 36.125 11.875 37.804001 11.875 39.875C 11.875 41.945999 13.553925 43.625 15.625 43.625ZM 10 10M 19.375 39.875L 36.244999 39.875M 19.060051 62.375C 21.131124 62.375 22.810051 60.695999 22.810051 58.625C 22.810051 56.553997 21.131124 54.875 19.060051 54.875C 16.989 54.875 15.31005 56.553997 15.31005 58.625C 15.31005 60.695999 16.989 62.375 19.060051 62.375ZM 10 10M 22.8125 58.625L 36.244999 58.625M 24.060051 49.875L 29.060051 49.875L 29.060051 58.611M 27.652599 31.125027L 36.244999 31.125027M 36.244999 12.375031C 56.494999 12.375031 60.745003 28.875025 67.995003 47.625C 68.495003 49.125 67.494995 50.625 65.995003 50.625L 60.745003 50.625L 60.745003 59.125C 60.745003 63.875 56.995003 67.625 52.245003 67.625L 36.244999 67.625L 36.244999 12.375031ZM 53.242001 53.625C 54.492001 56.125 58.242001 56.125 60.742001 56.125M 51.995003 37.874752C 51.718998 37.874752 51.494999 37.651001 51.494999 37.374748C 51.494999 37.098751 51.718998 36.874748 51.995003 36.874748M 51.995003 37.874752C 52.271 37.874752 52.494999 37.651001 52.494999 37.374748C 52.494999 37.098751 52.271 36.874748 51.995003 36.874748"></path></g></g></g><g id="g-root-tx_3_quofp61r1jq4t-stroke" data-item-order="0" transform="translate(446, 692)"></g><g id="g-root-tx_managesr_940wai1r1jpc9-stroke" data-item-order="0" transform="translate(734, 710)"></g><g id="g-root-tx_performs_1ikxm1r1uxvn-stroke" data-item-order="0" transform="translate(362, 362)"></g><g id="g-root-ic_code_18gc3961r1uxon-stroke" data-item-order="0" transform="translate(530, 344)"><g id="ic_code_18gc3961r1uxon-stroke" fill="none" stroke-linecap="round" stroke-linejoin="round" stroke-miterlimit="4" stroke="#ffe711" stroke-width="2"><g><path d="M 41.34 66.072502C 41.338619 67.551643 40.139149 68.75 38.660004 68.75L 14.5525 68.75C 13.074329 68.748619 11.876378 67.550674 11.875 66.072502L 11.875 59.375C 11.875 51.238464 18.470966 44.642502 26.6075 44.642502C 34.744038 44.642502 41.34 51.238464 41.34 59.375ZM 20.9825 53.75C 20.9825 54.095177 21.262321 54.375 21.6075 54.375C 21.952679 54.375 22.2325 54.095177 22.2325 53.75C 22.2325 53.404823 21.952679 53.125 21.6075 53.125C 21.262321 53.125 20.9825 53.404823 20.9825 53.75M 30.982498 53.735001C 30.982498 54.080177 31.262321 54.360001 31.607498 54.360001C 31.952679 54.360001 32.232498 54.080177 32.232498 53.735001C 32.232498 53.38982 31.952679 53.110001 31.607498 53.110001C 31.262321 53.110001 30.982498 53.38982 30.982498 53.735001M 26.6075 44.642502L 26.6075 39.285M 22.59 35.267502C 22.59 37.486305 24.388697 39.285004 26.6075 39.285004C 28.826305 39.285004 30.625 37.486305 30.625 35.267502C 30.625 33.048698 28.826305 31.25 26.6075 31.25C 24.388697 31.25 22.59 33.048698 22.59 35.267502M 11.875 62.037502L 41.34 62.037502M 58.125 12.5L 68.125 22.5L 58.125 32.5M 38.125 12.5L 28.125 22.5L 38.125 32.5M 50.625 11.25L 45.625 33.75"></path></g></g></g><g id="g-root-tx_nexussys_4nktx61r1s6bv-stroke" data-item-order="0" transform="translate(380, 38)"></g><g id="g-root-tx_githubwo_8dsvu1r1s3yc-stroke" data-item-order="0" transform="translate(566, 170)"></g><g id="g-root-tx_2_1lto41m1r1uz2e-stroke" data-item-order="0" transform="translate(278, 860)"></g><g id="g-root-ic_hand_59im21r1uzut-stroke" data-item-order="0" transform="translate(494, 848)"><g id="ic_hand_59im21r1uzut-stroke" fill="none" stroke-linecap="round" stroke-linejoin="round" stroke-miterlimit="4" stroke="#1ac3fb" stroke-width="2"><g><path d="M 11.25 68.75L 11.25 43.75M 11.25 48.75L 28.75 48.75C 32.892136 48.75 36.25 52.107864 36.25 56.25L 51.25 56.25C 55.392136 56.25 58.75 59.607864 58.75 63.75L 11.25 63.75ZM 36.25 56.25L 28.75 56.25M 45.625 29.375C 45.279823 29.375 45 29.654823 45 30C 45 30.345177 45.279823 30.625 45.625 30.625C 45.970177 30.625 46.25 30.345177 46.25 30C 46.25 29.654823 45.970177 29.375 45.625 29.375L 45.625 29.375M 68.75 30C 68.75 26.548222 65.951782 23.75 62.5 23.75L 42.5 23.75C 39.048222 23.75 36.25 26.548222 36.25 30C 36.25 33.451778 39.048222 36.25 42.5 36.25L 62.5 36.25C 65.951782 36.25 68.75 33.451778 68.75 30ZM 45.625 41.875C 45.279823 41.875 45 42.154823 45 42.5C 45 42.845177 45.279823 43.125 45.625 43.125C 45.970177 43.125 46.25 42.845177 46.25 42.5C 46.25 42.154823 45.970177 41.875 45.625 41.875L 45.625 41.875M 68.75 42.5C 68.75 39.048222 65.951782 36.25 62.5 36.25L 42.5 36.25C 39.048222 36.25 36.25 39.048222 36.25 42.5C 36.25 45.951782 39.048222 48.75 42.5 48.75L 62.5 48.75C 65.951782 48.75 68.75 45.951782 68.75 42.5ZM 45.625 16.875C 45.279823 16.875 45 17.154821 45 17.5C 45 17.845179 45.279823 18.125 45.625 18.125C 45.970177 18.125 46.25 17.845179 46.25 17.5C 46.25 17.154821 45.970177 16.875 45.625 16.875L 45.625 16.875M 68.75 17.5C 68.75 14.048221 65.951782 11.25 62.5 11.25L 42.5 11.25C 39.048222 11.25 36.25 14.048221 36.25 17.5C 36.25 20.95178 39.048222 23.75 42.5 23.75L 62.5 23.75C 65.951782 23.75 68.75 20.95178 68.75 17.5Z"></path></g></g></g><g id="g-root-tx_fastapis_qrk29m1r1uzup-stroke" data-item-order="0" transform="translate(566, 842)"></g><g id="g-root-tx_handlesa_4l30qi1r1uz2j-stroke" data-item-order="0" transform="translate(566, 878)"></g><g id="g-root-tx_geminimo_4hc3221r1ux3e-stroke" data-item-order="0" transform="translate(410, 326)"></g><g id="g-root-ic_1_mg3sl61r1s64v-stroke" data-item-order="0" transform="translate(698, 176)"><g id="ic_1_mg3sl61r1s64v-stroke" fill="none" stroke-linecap="round" stroke-linejoin="round" stroke-miterlimit="4" stroke="#f79438" stroke-width="2"><g><path d="M 40 11.25C 25.888058 11.236689 13.852756 21.467621 11.593659 35.397575C 9.334563 49.32753 17.51964 62.837711 30.912498 67.284996C 32.3475 67.535004 32.802502 66.692497 32.802502 65.932495C 32.802502 65.244995 32.817501 63.34 32.802502 60.932499C 24.8025 62.6675 23.150002 57.145 23.150002 57.145C 22.622559 55.407558 21.491077 53.916058 19.959999 52.939995C 17.35 51.154999 20.154999 51.189999 20.154999 51.189999C 22.001656 51.443459 23.627569 52.536011 24.559999 54.150002C 25.346184 55.582573 26.672638 56.641235 28.243883 57.090164C 29.815128 57.539085 31.500654 57.340996 32.924999 56.539997C 33.057636 55.086689 33.704823 53.728489 34.75 52.710003C 28.3675 51.98 21.655001 49.514999 21.655001 38.494999C 21.614477 35.638203 22.675346 32.875465 24.6175 30.780001C 23.737448 28.301222 23.837608 25.579878 24.897501 23.172501C 24.897501 23.172501 27.315001 22.4 32.802502 26.122499C 37.515388 24.82921 42.489616 24.82921 47.202499 26.122501C 52.702499 22.4025 55.100002 23.172501 55.100002 23.172501C 56.160271 25.579523 56.262203 28.300394 55.384998 30.780001C 57.327652 32.876804 58.386963 35.641941 58.342499 38.5C 58.342499 49.549999 51.620003 51.977501 45.215 52.684998C 46.606949 54.083672 47.324596 56.016846 47.182499 57.985001L 47.182499 65.945C 47.182499 66.712502 47.647499 67.5625 49.107498 67.284996C 62.503998 62.836548 70.689369 49.320614 68.42482 35.38768C 66.160263 21.454746 54.115749 11.226828 40 11.25Z"></path></g></g></g><g id="g-root-tx_userinte_4g3b7e1r1uzns-stroke" data-item-order="0" transform="translate(398, 1034)"></g><g id="g-root-tx_integrat_1qduum21r1s4jx-stroke" data-item-order="0" transform="translate(482, 206)"></g><g id="g-root-tx_streamli_hrjtkq1r1uy2v-stroke" data-item-order="0" transform="translate(398, 998)"></g><g id="g-root-tx_1_18ntym21r1tjid-stroke" data-item-order="0" transform="translate(110, 1028)"></g><g id="g-root-ic_2_1lqjtru1r1uyo1-stroke" data-item-order="0" transform="translate(326, 1016)"><g id="ic_2_1lqjtru1r1uyo1-stroke" fill="none" stroke-linecap="round" stroke-linejoin="round" stroke-miterlimit="4" stroke="#4f91fc" stroke-width="2"><g><path d="M 53.357502 25L 25 25C 22.238577 25 20 27.238577 20 30L 20 50C 20 52.761425 22.238577 55 25 55L 52.5 55C 55.261425 55 57.5 52.761425 57.5 50L 57.5 29.2925M 34.375 35.625C 34.375004 38.041245 36.333755 40 38.750004 40C 41.166245 40 43.125004 38.041245 43.125004 35.625C 43.125004 33.208755 41.166245 31.25 38.750004 31.25C 36.333755 31.25 34.375004 33.208755 34.375004 35.625M 47.5 48.75C 46.480068 44.750229 42.877766 41.951233 38.75 41.951233C 34.622234 41.951233 31.019934 44.750229 30 48.75M 48.75 61.25L 13.75 61.25C 12.369288 61.25 11.25 60.130711 11.25 58.75L 11.25 38.75C 11.25 37.369286 12.369288 36.25 13.75 36.25M 25 68.75C 26.842163 66.707672 27.748333 63.989166 27.500002 61.250004M 37.5 68.75C 35.657837 66.707672 34.751667 63.989166 35.000004 61.250004M 21.25 68.75L 41.25 68.75M 68.707497 11.25L 60 17.5L 50 17.5C 46.5275 17.5 43.364998 21.945 41.142498 25M 55.359997 22.5L 49.75 29.5C 49.0592 30.117514 48.76659 31.066452 48.98967 31.965763C 49.212746 32.865074 49.914925 33.567253 50.81424 33.790329C 51.713547 34.013409 52.662487 33.720802 53.279999 33.029999L 60.939999 26.25L 62.9175 26.25C 65.167496 26.25 68.75 23.0175 68.75 23.0175"></path></g></g></g><g id="g-root-tx_6_18mku4a1r1s6x2-stroke" data-item-order="0" transform="translate(950, 188)"></g><g id="g-root-tx_langchai_djueey1r1jojz-stroke" data-item-order="0" transform="translate(734, 674)"></g></g></g><path id="w940t7h1rlrbb4" d="M65.283 12.757a.35.35 0 0 0 .584.157l5.203-5.141-6.183 3.523.396 1.461zm-2.216-11.7a.35.35 0 0 0-.522.305v3.111l3.276-1.868-2.754-1.548zm3.728 2.105l-4.25 2.421v2.445l6.391-3.644-2.141-1.222zm4.708 3.303a.35.35 0 0 0 0-.609l-1.592-.9-7.365 4.199v1.782a.35.35 0 0 0 .523.305l8.435-4.777z M44.542 2.513c0-.433.355-.783.792-.783s.792.35.792.783-.355.783-.792.783-.792-.35-.792-.783zm59.171 0c0-.433.355-.783.792-.783s.792.35.792.783-.355.783-.792.783-.792-.35-.792-.783zm-85.951 7.636h-1.27v-.487c-.276.201-.864.609-1.881.609-1.202 0-2.274-.794-2.137-2.078.118-1.106 1.153-1.584 1.848-1.727l2.17-.345c0-.539-.29-.956-1.064-1.006s-1.21.305-1.571 1.017l-1.124-.605c1.218-2.631 5.029-1.764 5.029.414v4.207zm-1.27-2.86c.006.396-.062 1.112-.819 1.59-.587.37-1.841.299-1.903-.395-.049-.555.461-.791.906-.898l1.816-.297zm72.662 2.86h-1.27v-.487c-.276.201-.864.609-1.881.609-1.202 0-2.274-.794-2.137-2.078.118-1.106 1.153-1.584 1.848-1.727l2.17-.345c0-.539-.29-.956-1.064-1.006s-1.21.305-1.571 1.017l-1.124-.605c1.218-2.631 5.029-1.764 5.029.414v4.207zm-1.27-2.86c.006.396-.062 1.112-.82 1.59-.587.37-1.841.299-1.903-.395-.049-.555.461-.791.906-.898l1.816-.297zM99.096 10.149H97.85v-8.45h1.246v4.895l2.68-2.559h1.738l-2.633 2.535 2.715 3.578h-1.556l-2.077-2.707-.867.844v1.863zm6.053-6.114h-1.255v6.113h1.255V4.035zm-59.2 0h-1.255v6.113h1.255V4.035zm5.584 6.113V1.697h1.255v2.695c.361-.346 1-.485 1.47-.485 1.452 0 2.477 1.082 2.457 2.448v3.792h-1.27v-3.68c0-.408-.214-1.339-1.315-1.339-.968 0-1.342.756-1.342 1.339v3.681h-1.255zm-4.76-4.894V4.039h.621a.45.45 0 0 0 .45-.45v-.855h1.251v1.305h1.309v1.215h-1.309v3.109c0 .293.105.664.648.664.365 0 .531-.035.736-.07v1.137s-.361.113-.857.113c-1.398 0-1.777-1.051-1.777-1.788V5.254h-1.071zM36.528 4.039h-1.394l2.191 6.106h1.125l1.234-3.918 1.238 3.918h1.129l2.188-6.106h-1.383l-1.359 3.93-1.256-3.93h-1.124l-1.242 3.957-1.348-3.957zM26.212 7.141c-.02 1.566 1.187 3.129 3.223 3.129 1.566 0 2.383-.918 2.734-1.719L31.172 8c-.315.399-.801 1.094-1.738 1.094-1.145 0-1.825-.781-1.891-1.52h4.625c.074-.284.148-.995-.03-1.559-.336-1.064-1.221-2.102-2.839-2.102s-3.088 1.152-3.088 3.227zm1.363-.75h3.348c-.055-.43-.566-1.301-1.623-1.301a1.79 1.79 0 0 0-1.725 1.301zm-8.758.75c.038 1.758 1.277 3.133 3.145 3.133 1.074 0 1.723-.477 1.961-.672v.547h1.242V1.703h-1.258v2.888c-.414-.36-1.062-.68-1.93-.68-1.91 0-3.198 1.473-3.16 3.23zm1.309-.08c0 1.119.723 1.978 1.836 1.978a1.88 1.88 0 0 0 1.94-1.904c0-1.371-1.011-1.99-1.972-1.99s-1.805.798-1.805 1.916zm76.683-.028C96.771 5.275 95.532 3.9 93.664 3.9c-1.074 0-1.723.477-1.961.672v-.547h-1.242v8.22h1.258V9.583c.414.36 1.063.68 1.93.68 1.91 0 3.198-1.473 3.16-3.23zm-1.309.08c0-1.119-.723-1.978-1.836-1.978a1.88 1.88 0 0 0-1.94 1.904c0 1.371 1.011 1.99 1.972 1.99S95.5 8.231 95.5 7.113zM106.441 10.173V4.036h1.254v.382c.361-.346 1-.485 1.47-.485 1.452 0 2.477 1.082 2.457 2.448v3.792h-1.27V6.492c0-.408-.214-1.339-1.315-1.339-.969 0-1.342.756-1.342 1.339v3.681h-1.254zm-30.383-.021V1.824h1.084l4.215 5.777V1.824h1.32v8.328h-1.094l-4.207-5.796v5.796h-1.319zM5.24 10.149H4V2.377h1.014l2.664 3.597 2.654-3.592h1.03v7.766h-1.256V4.762L7.678 8.068 5.24 4.742v5.407z" transform="translate(968, 1179.0001220703125)" fill="#ababab88" stroke="none"></path></svg>