<?xml version="1.0" encoding="utf-8" standalone="yes"?>
<!DOCTYPE svg PUBLIC "-//W3C//DTD SVG 1.1//EN" "http://www.w3.org/Graphics/SVG/1.1/DTD/svg11.dtd">
<svg width="606" height="456" viewBox="0 0 606 456" style="fill:none;stroke:none;fill-rule:evenodd;clip-rule:evenodd;stroke-linecap:round;stroke-linejoin:round;stroke-miterlimit:1.5;" version="1.1" xmlns="http://www.w3.org/2000/svg" xmlns:xlink="http://www.w3.org/1999/xlink"><style class="text-font-style fontImports" data-font-family="Roboto">@import url(https://fonts.googleapis.com/css2?family=Roboto:wght@400;700&amp;amp;display=block);</style><g id="items" style="isolation: isolate"><g id="blend" style="mix-blend-mode: normal"><g id="g-root-cp_0_g-0_m98hwco71q19-fill" data-item-order="-200869" transform="translate(20, 230)"></g><g id="g-root-sy_0_Vector_m98hwco71q1a-fill" data-item-order="-200865" transform="translate(503, 230)"></g><g id="g-root-cp_1_g-1_htezrwo71qtj-fill" data-item-order="-200861" transform="translate(77, 227)"></g><g id="g-root-cp_2_g-2_htezrwo71qtk-fill" data-item-order="-200857" transform="translate(137, 227)"></g><g id="g-root-cp_3_g-3_ddlhngo71rlt-fill" data-item-order="-200853" transform="translate(197, 227)"></g><g id="g-root-cp_6_g-6_ddlhngo71rlu-fill" data-item-order="-200849" transform="translate(377, 227)"></g><g id="g-root-cp_5_g-5_4hyheko71sej-fill" data-item-order="-200845" transform="translate(317, 227)"></g><g id="g-root-cp_7_g-7_4hyheko71sek-fill" data-item-order="-200841" transform="translate(437, 227)"></g><g id="g-root-cp_4_g-4_2rgd8o71q11-fill" data-item-order="-200837" transform="translate(257, 227)"></g><g id="g-root-cp_8_g-8_2rgd8o71q12-fill" data-item-order="-200833" transform="translate(497, 227)"></g><g id="g-root-ic_1_5urvgoh1b7y-fill" data-item-order="0" transform="translate(182, 182)"></g><g id="g-root-ic_refr_18ntz18o7d05c-fill" data-item-order="0" transform="translate(302, 182)"></g><g id="g-root-ic_reco_1hclhuko71s74-fill" data-item-order="0" transform="translate(422, 182)"></g><g id="g-root-ic_chat_18hjzx8ohcjrg-fill" data-item-order="0" transform="translate(62, 182)"></g><g id="g-root-tx_thenexus_8x4mu4ohcm4h-fill" data-item-order="0" transform="translate(392, 116)"><g id="tx_thenexus_8x4mu4ohcm4h-fill-merged" stroke="none" fill="#f4f4f4"><g><text style="font: 10px Roboto, sans-serif; white-space: pre;" font-size="10px" font-family="Roboto, sans-serif"><tspan x="19.97" y="22" dominant-baseline="ideographic">The NexusAgent </tspan><tspan x="13.54" y="34" dominant-baseline="ideographic">formulates the final </tspan><tspan x="14.56" y="46" dominant-baseline="ideographic">output for the user.</tspan></text></g></g></g><g id="g-root-tx_agentsre_v3lod8ohcm4t-fill" data-item-order="0" transform="translate(272, 116)"><g id="tx_agentsre_v3lod8ohcm4t-fill-merged" stroke="none" fill="#f4f4f4"><g><text style="font: 10px Roboto, sans-serif; white-space: pre;" font-size="10px" font-family="Roboto, sans-serif"><tspan x="15.47" y="22" dominant-baseline="ideographic">Agents return their </tspan><tspan x="27.72" y="34" dominant-baseline="ideographic">results to the </tspan><tspan x="28.29" y="46" dominant-baseline="ideographic">NexusAgent.</tspan></text></g></g></g><g id="g-root-tx_tasksare_1lpw80sohcm4p-fill" data-item-order="0" transform="translate(152, 116)"><g id="tx_tasksare_1lpw80sohcm4p-fill-merged" stroke="none" fill="#f4f4f4"><g><text style="font: 10px Roboto, sans-serif; white-space: pre;" font-size="10px" font-family="Roboto, sans-serif"><tspan x="14.09" y="22" dominant-baseline="ideographic">Tasks are routed to </tspan><tspan x="14.79" y="34" dominant-baseline="ideographic">appropriate agents </tspan><tspan x="22.58" y="46" dominant-baseline="ideographic">based on input.</tspan></text></g></g></g><g id="g-root-tx_theuserp_i0vt7gohb6z1-fill" data-item-order="0" transform="translate(32, 116)"><g id="tx_theuserp_i0vt7gohb6z1-fill-merged" stroke="none" fill="#f4f4f4"><g><text style="font: 10px Roboto, sans-serif; white-space: pre;" font-size="10px" font-family="Roboto, sans-serif"><tspan x="17.24" y="22" dominant-baseline="ideographic">The user provides </tspan><tspan x="31.62" y="34" dominant-baseline="ideographic">input to the </tspan><tspan x="28.28" y="46" dominant-baseline="ideographic">NexusAgent.</tspan></text></g></g></g><g id="g-root-tx_finalout_hsrn30ohckjz-fill" data-item-order="0" transform="translate(404, 86)"><g id="tx_finalout_hsrn30ohckjz-fill-merged" stroke="none" fill="#fb6762"><g><text style="font: bold 11.7px Roboto, sans-serif; white-space: pre;" font-weight="bold" font-size="11.7px" font-family="Roboto, sans-serif"><tspan x="14" y="28.6" dominant-baseline="ideographic">Final Output</tspan></text></g></g></g><g id="g-root-tx_resultre_18f26qkohckjv-fill" data-item-order="0" transform="translate(278, 86)"><g id="tx_resultre_18f26qkohckjv-fill-merged" stroke="none" fill="#ffe711"><g><text style="font: bold 11.7px Roboto, sans-serif; white-space: pre;" font-weight="bold" font-size="11.7px" font-family="Roboto, sans-serif"><tspan x="16.26" y="28.6" dominant-baseline="ideographic">Result Return</tspan></text></g></g></g><g id="g-root-tx_taskrout_8of0ohckqv-fill" data-item-order="0" transform="translate(158, 86)"><g id="tx_taskrout_8of0ohckqv-fill-merged" stroke="none" fill="#43dd93"><g><text style="font: bold 11.7px Roboto, sans-serif; white-space: pre;" font-weight="bold" font-size="11.7px" font-family="Roboto, sans-serif"><tspan x="17.63" y="28.6" dominant-baseline="ideographic">Task Routing</tspan></text></g></g></g><g id="g-root-tx_thefinal_142d21oohcmix-fill" data-item-order="0" transform="translate(452, 350)"><g id="tx_thefinal_142d21oohcmix-fill-merged" stroke="none" fill="#f4f4f4"><g><text style="font: 10px Roboto, sans-serif; white-space: pre;" font-size="10px" font-family="Roboto, sans-serif"><tspan x="16.94" y="22" dominant-baseline="ideographic">The final output is </tspan><tspan x="20.59" y="34" dominant-baseline="ideographic">presented to the </tspan><tspan x="46.05" y="46" dominant-baseline="ideographic">user.</tspan></text></g></g></g><g id="g-root-ic_2_m7c718oh2sqp-fill" data-item-order="0" transform="translate(122, 242)"></g><g id="g-root-ic_rota_18isuxooh9s78-fill" data-item-order="0" transform="translate(242, 242)"></g><g id="g-root-ic_shar_1um5j18ogyj9i-fill" data-item-order="0" transform="translate(362, 242)"></g><g id="g-root-ic_fema_1uub0kco77dvo-fill" data-item-order="0" transform="translate(482, 242)"></g><g id="g-root-tx_nexussys_1q88i3go71qmn-fill" data-item-order="0" transform="translate(179, 38)"><g id="tx_nexussys_1q88i3go71qmn-fill-merged" stroke="none" fill="#f4f4f4"><g><text style="font: bold 20px Roboto, sans-serif; white-space: pre;" font-weight="bold" font-size="20px" font-family="Roboto, sans-serif"><tspan x="14.61" y="34" dominant-baseline="ideographic">Nexus System Workflow</tspan></text></g></g></g><g id="g-root-tx_inputana_1unenj0ohckcj-fill" data-item-order="0" transform="translate(98, 308)"><g id="tx_inputana_1unenj0ohckcj-fill-merged" stroke="none" fill="#1ac3fb"><g><text style="font: bold 11.7px Roboto, sans-serif; white-space: pre;" font-weight="bold" font-size="11.7px" font-family="Roboto, sans-serif"><tspan x="14.72" y="28.6" dominant-baseline="ideographic">Input Analysis</tspan></text></g></g></g><g id="g-root-tx_taskexec_14143vgohckcn-fill" data-item-order="0" transform="translate(218, 308)"><g id="tx_taskexec_14143vgohckcn-fill-merged" stroke="none" fill="#a6da37"><g><text style="font: bold 11.7px Roboto, sans-serif; white-space: pre;" font-weight="bold" font-size="11.7px" font-family="Roboto, sans-serif"><tspan x="12.3" y="28.6" dominant-baseline="ideographic">Task Execution</tspan></text></g></g></g><g id="g-root-tx_resultag_8z023gohcl4z-fill" data-item-order="0" transform="translate(344, 308)"><g id="tx_resultag_8z023gohcl4z-fill-merged" stroke="none" fill="#f79438"><g><text style="font: bold 11.7px Roboto, sans-serif; white-space: pre;" font-weight="bold" font-size="11.7px" font-family="Roboto, sans-serif"><tspan x="29.29" y="27.6" dominant-baseline="ideographic">Result </tspan><tspan x="13.56" y="41.6" dominant-baseline="ideographic">Aggregation</tspan></text></g></g></g><g id="g-root-tx_outputpr_1hdtkf0ohckxz-fill" data-item-order="0" transform="translate(464, 308)"><g id="tx_outputpr_1hdtkf0ohckxz-fill-merged" stroke="none" fill="#f366bb"><g><text style="font: bold 11.7px Roboto, sans-serif; white-space: pre;" font-weight="bold" font-size="11.7px" font-family="Roboto, sans-serif"><tspan x="28.16" y="27.6" dominant-baseline="ideographic">Output </tspan><tspan x="12.33" y="41.6" dominant-baseline="ideographic">Presentation</tspan></text></g></g></g><g id="g-root-tx_thenexus_1hby55oohclxh-fill" data-item-order="0" transform="translate(92, 338)"><g id="tx_thenexus_1hby55oohclxh-fill-merged" stroke="none" fill="#f4f4f4"><g><text style="font: 10px Roboto, sans-serif; white-space: pre;" font-size="10px" font-family="Roboto, sans-serif"><tspan x="19.97" y="22" dominant-baseline="ideographic">The NexusAgent </tspan><tspan x="16.6" y="34" dominant-baseline="ideographic">analyzes the input </tspan><tspan x="18.49" y="46" dominant-baseline="ideographic">and routes tasks.</tspan></text></g></g></g><g id="g-root-tx_agentspe_qpnli4ohclxl-fill" data-item-order="0" transform="translate(206, 338)"><g id="tx_agentspe_qpnli4ohclxl-fill-merged" stroke="none" fill="#f4f4f4"><g><text style="font: 10px Roboto, sans-serif; white-space: pre;" font-size="10px" font-family="Roboto, sans-serif"><tspan x="17.65" y="22" dominant-baseline="ideographic">Agents perform their </tspan><tspan x="16.85" y="34" dominant-baseline="ideographic">assigned tasks using </tspan><tspan x="25.3" y="46" dominant-baseline="ideographic">LLM and external </tspan><tspan x="40.34" y="58" dominant-baseline="ideographic">resources.</tspan></text></g></g></g><g id="g-root-tx_thenexus_1uonlp8ohcmit-fill" data-item-order="0" transform="translate(338, 350)"><g id="tx_thenexus_1uonlp8ohcmit-fill-merged" stroke="none" fill="#f4f4f4"><g><text style="font: 10px Roboto, sans-serif; white-space: pre;" font-size="10px" font-family="Roboto, sans-serif"><tspan x="13.97" y="22" dominant-baseline="ideographic">The NexusAgent </tspan><tspan x="17.44" y="34" dominant-baseline="ideographic">aggregates the </tspan><tspan x="17.43" y="46" dominant-baseline="ideographic">results from all </tspan><tspan x="34.28" y="58" dominant-baseline="ideographic">agents.</tspan></text></g></g></g><g id="g-root-tx_userinpu_18n6cv0ohb6yz-fill" data-item-order="0" transform="translate(50, 86)"><g id="tx_userinpu_18n6cv0ohb6yz-fill-merged" stroke="none" fill="#4f91fc"><g><text style="font: bold 11.7px Roboto, sans-serif; white-space: pre;" font-weight="bold" font-size="11.7px" font-family="Roboto, sans-serif"><tspan x="12.85" y="28.6" dominant-baseline="ideographic">User Input</tspan></text></g></g></g><g id="g-root-cp_0_g-0_m98hwco71q19-stroke" data-item-order="-200869" transform="translate(20, 230)"><g id="cp_0_g-0_m98hwco71q19-stroke" fill="none" stroke-linecap="round" stroke-linejoin="round" stroke-miterlimit="4" stroke="#f4f4f4" stroke-width="2"><g><path d="M 67 10L 10 10M 127.0307 10L 72.9706 10M 187 10L 133 10M 247 10L 192.9701 10M 307 10L 252.9703 10M 367.0306 10L 312.9701 10M 427.0299 10L 373 10M 487 10L 433 10"></path></g></g></g><g id="g-root-sy_0_Vector_m98hwco71q1a-stroke" data-item-order="-200865" transform="translate(503, 230)"><g id="sy_0_Vector_m98hwco71q1a-stroke" fill="none" stroke-linecap="round" stroke-linejoin="round" stroke-miterlimit="4" stroke="#f4f4f4" stroke-width="2"><g><path d="M 65 10L 10 10"></path><path d="M 59 16.5L 65.5 10L 59 3.5" stroke-dasharray="none"></path></g></g></g><g id="g-root-cp_1_g-1_htezrwo71qtj-stroke" data-item-order="-200861" transform="translate(77, 227)"><g id="cp_1_g-1_htezrwo71qtj-stroke" fill="none" stroke-linecap="round" stroke-linejoin="round" stroke-miterlimit="4" stroke="#f4f4f4" stroke-width="2"><g><path d="M 16 13C 16 14.6569 14.6569 16 13 16C 11.3432 16 10 14.6569 10 13C 10 11.3431 11.3432 10 13 10C 14.6569 10 16 11.3431 16 13Z"></path></g></g></g><g id="g-root-cp_2_g-2_htezrwo71qtk-stroke" data-item-order="-200857" transform="translate(137, 227)"><g id="cp_2_g-2_htezrwo71qtk-stroke" fill="none" stroke-linecap="round" stroke-linejoin="round" stroke-miterlimit="4" stroke="#f4f4f4" stroke-width="2"><g><path d="M 16 13C 16 14.6569 14.6568 16 13 16C 11.3431 16 10 14.6569 10 13C 10 11.3431 11.3431 10 13 10C 14.6568 10 16 11.3431 16 13Z"></path></g></g></g><g id="g-root-cp_3_g-3_ddlhngo71rlt-stroke" data-item-order="-200853" transform="translate(197, 227)"><g id="cp_3_g-3_ddlhngo71rlt-stroke" fill="none" stroke-linecap="round" stroke-linejoin="round" stroke-miterlimit="4" stroke="#f4f4f4" stroke-width="2"><g><path d="M 16 13C 16 14.6569 14.6568 16 13 16C 11.3431 16 10 14.6569 10 13C 10 11.3431 11.3431 10 13 10C 14.6568 10 16 11.3431 16 13Z"></path></g></g></g><g id="g-root-cp_6_g-6_ddlhngo71rlu-stroke" data-item-order="-200849" transform="translate(377, 227)"><g id="cp_6_g-6_ddlhngo71rlu-stroke" fill="none" stroke-linecap="round" stroke-linejoin="round" stroke-miterlimit="4" stroke="#f4f4f4" stroke-width="2"><g><path d="M 16 13C 16 14.6569 14.6569 16 13 16C 11.3431 16 10 14.6569 10 13C 10 11.3431 11.3431 10 13 10C 14.6569 10 16 11.3431 16 13Z"></path></g></g></g><g id="g-root-cp_5_g-5_4hyheko71sej-stroke" data-item-order="-200845" transform="translate(317, 227)"><g id="cp_5_g-5_4hyheko71sej-stroke" fill="none" stroke-linecap="round" stroke-linejoin="round" stroke-miterlimit="4" stroke="#f4f4f4" stroke-width="2"><g><path d="M 16 13C 16 14.6569 14.6568 16 13 16C 11.3431 16 10 14.6569 10 13C 10 11.3431 11.3431 10 13 10C 14.6568 10 16 11.3431 16 13Z"></path></g></g></g><g id="g-root-cp_7_g-7_4hyheko71sek-stroke" data-item-order="-200841" transform="translate(437, 227)"><g id="cp_7_g-7_4hyheko71sek-stroke" fill="none" stroke-linecap="round" stroke-linejoin="round" stroke-miterlimit="4" stroke="#f4f4f4" stroke-width="2"><g><path d="M 16 13C 16 14.6569 14.6569 16 13 16C 11.3432 16 10 14.6569 10 13C 10 11.3431 11.3432 10 13 10C 14.6569 10 16 11.3431 16 13Z"></path></g></g></g><g id="g-root-cp_4_g-4_2rgd8o71q11-stroke" data-item-order="-200837" transform="translate(257, 227)"><g id="cp_4_g-4_2rgd8o71q11-stroke" fill="none" stroke-linecap="round" stroke-linejoin="round" stroke-miterlimit="4" stroke="#f4f4f4" stroke-width="2"><g><path d="M 16 13C 16 14.6569 14.6568 16 13 16C 11.3431 16 10 14.6569 10 13C 10 11.3431 11.3431 10 13 10C 14.6568 10 16 11.3431 16 13Z"></path></g></g></g><g id="g-root-cp_8_g-8_2rgd8o71q12-stroke" data-item-order="-200833" transform="translate(497, 227)"><g id="cp_8_g-8_2rgd8o71q12-stroke" fill="none" stroke-linecap="round" stroke-linejoin="round" stroke-miterlimit="4" stroke="#f4f4f4" stroke-width="2"><g><path d="M 16 13C 16 14.6569 14.6569 16 13 16C 11.3431 16 10 14.6569 10 13C 10 11.3431 11.3431 10 13 10C 14.6569 10 16 11.3431 16 13Z"></path></g></g></g><g id="g-root-ic_1_5urvgoh1b7y-stroke" data-item-order="0" transform="translate(182, 182)"><g id="ic_1_5urvgoh1b7y-stroke" fill="none" stroke-linecap="round" stroke-linejoin="round" stroke-miterlimit="4" stroke="#f4f4f4" stroke-width="2"><g><path d="M 13.2115 34.371998C 13.2115 36.650173 15.058326 38.497002 17.3365 38.497002C 19.614676 38.497002 21.4615 36.650173 21.4615 34.372002C 21.4615 32.093826 19.614676 30.247 17.3365 30.247C 15.058326 30.247 13.2115 32.093826 13.2115 34.372002M 23.9065 45.25C 23.212517 42.179966 20.484741 39.999985 17.33725 39.999985C 14.189756 39.999985 11.461984 42.179966 10.768 45.249996ZM 27.643 31.75C 28.508726 27.921576 31.838879 25.152601 35.761002 24.999998C 35.987503 24.991001 36.211002 24.991001 36.4375 25C 40.612499 24.836983 44.30991 27.674839 45.232002 31.75ZM 30.4375 16.75C 30.4375 20.063709 33.123791 22.75 36.4375 22.75C 39.751209 22.75 42.4375 20.063709 42.4375 16.75C 42.4375 13.436292 39.751209 10.75 36.4375 10.75C 33.123791 10.75 30.4375 13.436292 30.4375 16.75M 42.028 15.9505C 41.056347 16.485481 39.963146 16.760849 38.854004 16.75C 36.065346 16.755983 33.511669 15.188954 32.254002 12.7M 36.4375 28L 36.4375 30.25M 29.518 45.25L 32.518002 45.25C 35.831711 45.25 38.517998 42.563709 38.517998 39.25L 38.517998 35.5M 34.767998 39.25L 38.517998 35.5L 42.267998 39.25M 13.768 25.75L 13.768 22.75C 13.768 19.436291 16.454292 16.75 19.768 16.75L 24.268 16.75M 20.518 20.5L 24.268 16.75L 20.518 13"></path></g></g></g><g id="g-root-ic_refr_18ntz18o7d05c-stroke" data-item-order="0" transform="translate(302, 182)"><g id="ic_refr_18ntz18o7d05c-stroke" fill="none" stroke-linecap="round" stroke-linejoin="round" stroke-miterlimit="4" stroke="#f4f4f4" stroke-width="2"><g><path d="M 14.875 17.125C 14.875 20.645815 17.729185 23.5 21.25 23.5C 24.770815 23.5 27.625 20.645815 27.625 17.125C 27.625 13.604185 24.770815 10.75 21.25 10.75C 17.729185 10.75 14.875 13.604185 14.875 17.125M 22.75 36.25L 10.75 36.25C 10.750907 32.411167 12.846684 28.878819 16.215466 27.038176C 19.584248 25.197533 23.688988 25.34203 26.920002 27.415001M 10 10M 38.635002 32.709999L 43.195 34.75L 45.25 30.145M 26.98 32.889999C 28.25271 29.178123 31.93704 26.852102 35.835484 27.299286C 39.733925 27.746471 42.795856 30.846348 43.195 34.75M 10 10M 31.57 39.790001L 27.01 37.75L 24.955 42.355M 43.224998 39.595001C 41.954399 43.30603 38.273285 45.633503 34.375912 45.190048C 30.47854 44.74659 27.414408 41.651619 27.01 37.75"></path></g></g></g><g id="g-root-ic_reco_1hclhuko71s74-stroke" data-item-order="0" transform="translate(422, 182)"><g id="ic_reco_1hclhuko71s74-stroke" fill="none" stroke-linecap="round" stroke-linejoin="round" stroke-miterlimit="4" stroke="#f4f4f4" stroke-width="2"><g><path d="M 28.429001 43.643501C 28.428173 44.530987 27.708488 45.25 26.821001 45.25L 12.3565 45.25C 11.469597 45.249172 10.750827 44.530403 10.75 43.643501L 10.75 39.625C 10.75 34.74308 14.70758 30.7855 19.5895 30.7855C 24.471422 30.7855 28.429001 34.74308 28.429001 39.625ZM 16.2145 36.25C 16.2145 36.457108 16.382393 36.625 16.5895 36.625C 16.796606 36.625 16.9645 36.457108 16.9645 36.25C 16.9645 36.042892 16.796606 35.875 16.5895 35.875C 16.382393 35.875 16.2145 36.042892 16.2145 36.25M 22.2145 36.240997C 22.2145 36.448105 22.382393 36.615997 22.5895 36.615997C 22.796608 36.615997 22.9645 36.448105 22.9645 36.240997C 22.9645 36.033894 22.796608 35.865997 22.5895 35.865997C 22.382393 35.865997 22.2145 36.033894 22.2145 36.240997M 19.5895 30.7855L 19.5895 27.570999M 17.178999 25.1605C 17.179001 26.491783 18.258217 27.571001 19.5895 27.571001C 20.920782 27.571001 22 26.491783 22 25.1605C 22 23.829218 20.920782 22.75 19.5895 22.75C 18.258217 22.75 17.179001 23.829218 17.179001 25.1605M 10.75 41.2225L 28.429001 41.2225M 22.75 18.25L 22.75 20.125M 26.5 16.75L 26.5 25.75M 30.25 15.25L 30.25 27.25M 45.25 18.25L 45.25 24.25M 41.5 16.75L 41.5 25.75M 37.75 15.25L 37.75 27.25M 34 10.75L 34 31.75"></path></g></g></g><g id="g-root-ic_chat_18hjzx8ohcjrg-stroke" data-item-order="0" transform="translate(62, 182)"><g id="ic_chat_18hjzx8ohcjrg-stroke" fill="none" stroke-linecap="round" stroke-linejoin="round" stroke-miterlimit="4" stroke="#f4f4f4" stroke-width="2"><g><path d="M 12.625 21.625C 12.625 24.317389 14.807612 26.5 17.5 26.5C 20.192389 26.5 22.375 24.317389 22.375 21.625C 22.375 18.932611 20.192389 16.75 17.5 16.75C 14.807612 16.75 12.625 18.932611 12.625 21.625ZM 20.35 45.25L 21.25 40.75L 24.25 40.75L 24.25 35.5C 24.25 31.772079 21.227922 28.75 17.5 28.75C 13.772079 28.75 10.75 31.772079 10.75 35.5L 10.75 40.75L 13.75 40.75L 14.65 45.25M 45.25 24.25C 45.25 25.078428 44.578426 25.75 43.75 25.75L 35.5 25.75L 30.25 30.25L 30.25 25.75L 28.75 25.75C 27.921572 25.75 27.25 25.078428 27.25 24.25L 27.25 12.25C 27.25 11.421573 27.921572 10.75 28.75 10.75L 43.75 10.75C 44.578426 10.75 45.25 11.421573 45.25 12.25ZM 12.625 21.625C 12.625 24.317389 14.807612 26.5 17.5 26.5C 20.192389 26.5 22.375 24.317389 22.375 21.625C 22.375 18.932611 20.192389 16.75 17.5 16.75C 14.807612 16.75 12.625 18.932611 12.625 21.625ZM 20.35 45.25L 21.25 40.75L 24.25 40.75L 24.25 35.5C 24.25 31.772079 21.227922 28.75 17.5 28.75C 13.772079 28.75 10.75 31.772079 10.75 35.5L 10.75 40.75L 13.75 40.75L 14.65 45.25M 31.75 14.5L 34.75 17.5L 31.75 20.5M 36.25 19.75L 42.25 19.75"></path></g></g></g><g id="g-root-tx_thenexus_8x4mu4ohcm4h-stroke" data-item-order="0" transform="translate(392, 116)"></g><g id="g-root-tx_agentsre_v3lod8ohcm4t-stroke" data-item-order="0" transform="translate(272, 116)"></g><g id="g-root-tx_tasksare_1lpw80sohcm4p-stroke" data-item-order="0" transform="translate(152, 116)"></g><g id="g-root-tx_theuserp_i0vt7gohb6z1-stroke" data-item-order="0" transform="translate(32, 116)"></g><g id="g-root-tx_finalout_hsrn30ohckjz-stroke" data-item-order="0" transform="translate(404, 86)"></g><g id="g-root-tx_resultre_18f26qkohckjv-stroke" data-item-order="0" transform="translate(278, 86)"></g><g id="g-root-tx_taskrout_8of0ohckqv-stroke" data-item-order="0" transform="translate(158, 86)"></g><g id="g-root-tx_thefinal_142d21oohcmix-stroke" data-item-order="0" transform="translate(452, 350)"></g><g id="g-root-ic_2_m7c718oh2sqp-stroke" data-item-order="0" transform="translate(122, 242)"><g id="ic_2_m7c718oh2sqp-stroke" fill="none" stroke-linecap="round" stroke-linejoin="round" stroke-miterlimit="4" stroke="#f4f4f4" stroke-width="2"><g><path d="M 29.236 27.7645L 34.243 16.75L 39.25 27.7645M 30.346001 25.323999L 38.139999 25.323999M 30.625 36.25L 42.25 36.25C 43.906857 36.25 45.25 34.906857 45.25 33.25L 45.25 13.75C 45.25 12.093145 43.906857 10.75 42.25 10.75L 15.25 10.75C 13.593145 10.75 12.25 12.093145 12.25 13.75L 12.25 27.474998M 27.25 43.75C 27.25 44.578426 26.578428 45.25 25.75 45.25L 12.25 45.25C 11.421573 45.25 10.75 44.578426 10.75 43.75L 10.75 38.5C 10.75 33.943653 14.443651 30.250002 19 30.250002C 23.556349 30.250002 27.25 33.943653 27.25 38.5ZM 10.75 40.75L 27.25 40.75M 15.25 36.625C 15.25 36.832108 15.417893 37 15.625 37C 15.832107 37 16 36.832108 16 36.625C 16 36.417892 15.832107 36.25 15.625 36.25C 15.417893 36.25 15.25 36.417892 15.25 36.625M 22 36.625C 22 36.832108 22.167892 37 22.375 37C 22.582108 37 22.75 36.832108 22.75 36.625C 22.75 36.417892 22.582108 36.25 22.375 36.25C 22.167892 36.25 22 36.417892 22 36.625M 19 30.25L 19 27.25M 16.75 25C 16.75 26.242641 17.75736 27.25 19 27.25C 20.242641 27.25 21.25 26.242641 21.25 25C 21.25 23.75736 20.242641 22.75 19 22.75C 17.75736 22.75 16.75 23.75736 16.75 25"></path></g></g></g><g id="g-root-ic_rota_18isuxooh9s78-stroke" data-item-order="0" transform="translate(242, 242)"><g id="ic_rota_18isuxooh9s78-stroke" fill="none" stroke-linecap="round" stroke-linejoin="round" stroke-miterlimit="4" stroke="#f4f4f4" stroke-width="2"><g><path d="M 11.125092 44.875L 36.625149 44.875M 18.325075 22.22485C 20.275074 24.17485 22.975075 25.374849 25.974998 25.374849M 28.224998 29.424999C 27.025002 30.625 25.525002 31.525002 23.575014 31.525002C 20.125015 31.525002 17.425014 28.825001 17.425014 25.375C 17.425014 21.32497 21.475016 18.174969 25.674999 19.524969M 33.775002 40.225151C 31.825001 36.625149 28.075001 34.074997 23.725044 34.074997C 19.375046 34.074997 15.47506 36.625149 13.52506 40.225151M 30.71875 16.779116C 32.996048 19.208305 36.184452 20.574715 39.828251 20.574715C 41.65015 20.574715 43.320099 20.27107 44.838398 19.51195M 42.025002 14.424955C 43.824997 15.774955 44.875 17.874954 44.875 20.274956C 44.875 24.474955 41.574997 27.775002 37.375 27.775002C 33.174999 27.775002 29.875 24.474955 29.875 20.274956C 29.875 16.531509 32.496552 13.50304 36.040302 12.88885M 10 10M 34.824997 11.124817L 37.525002 12.92482L 35.574997 15.77482"></path></g></g></g><g id="g-root-ic_shar_1um5j18ogyj9i-stroke" data-item-order="0" transform="translate(362, 242)"><g id="ic_shar_1um5j18ogyj9i-stroke" fill="none" stroke-linecap="round" stroke-linejoin="round" stroke-miterlimit="4" stroke="#f4f4f4" stroke-width="2"><g><path d="M 30.6835 10.75L 43.717003 10.75C 43.717003 10.75 45.25 10.75 45.25 12.283L 45.25 24.549999C 45.25 24.549999 45.25 26.083 43.717003 26.083L 30.6835 26.083C 30.6835 26.083 29.150501 26.083 29.150501 24.549999L 29.150501 12.283C 29.150501 12.283 29.150501 10.75 30.6835 10.75M 29.150501 15.9715L 45.25 15.9715M 29.150501 21.028L 45.25 21.028M 36.431499 15.9715L 36.431499 26.083M 40.748501 15.9715L 40.748501 26.083M 17.65 20.200001L 14.2 23.5L 14.2 20.200001C 14.249214 17.708704 16.309225 15.729294 18.800501 15.7795L 24.549999 15.7795M 10.75 20.200001L 14.2 23.5075M 21.1 12.4675L 24.549999 15.7795L 21.1 19.091499M 12.283 27.616001L 20.717501 27.616001C 20.717501 27.616001 22.2505 27.616001 22.2505 29.149002L 22.2505 43.717003C 22.2505 43.717003 22.2505 45.25 20.717501 45.25L 12.283 45.25C 12.283 45.25 10.75 45.25 10.75 43.717003L 10.75 29.149002C 10.75 29.149002 10.75 27.616001 12.283 27.616001M 10.75 40.649502L 22.2505 40.649502"></path></g></g></g><g id="g-root-ic_fema_1uub0kco77dvo-stroke" data-item-order="0" transform="translate(482, 242)"><g id="ic_fema_1uub0kco77dvo-stroke" fill="none" stroke-linecap="round" stroke-linejoin="round" stroke-miterlimit="4" stroke="#f4f4f4" stroke-width="2"><g><path d="M 26.5 37.75L 15.25 37.75C 12.764719 37.75 10.75 35.735283 10.75 33.25L 10.75 15.25C 10.75 12.764719 12.764719 10.75 15.25 10.75L 33.25 10.75C 35.735283 10.75 37.75 12.764719 37.75 15.25L 37.75 22.75M 45.25 36.050499L 37.769501 27.25L 30.290501 36.050499L 34.370499 36.050499L 34.370499 45.25L 41.170002 45.25L 41.170002 36.050499L 45.25 36.050499ZM 27.2605 33.25L 16.7605 33.25C 16.760649 29.855589 19.040586 26.884441 22.319332 26.005894C 25.598078 25.127344 29.058147 26.56044 30.755501 29.5M 29.716 23.716C 29.116802 22.732563 28.81806 21.595457 28.856499 20.4445L 28.856501 19.106501C 28.886543 17.442293 28.015892 15.891481 26.579445 15.050585C 25.142998 14.209687 23.364504 14.209687 21.928055 15.050585C 20.491608 15.891481 19.620958 17.442293 19.651001 19.106501L 19.651001 20.4445C 19.689438 21.595457 19.390694 22.732563 18.7915 23.716M 19.651001 19.867001C 21.417282 19.862629 23.094925 19.092752 24.25 17.7565C 25.405396 19.09403 27.084541 19.864094 28.852001 19.867001M 28.310499 19.841499C 28.217058 22.014187 26.428446 23.72753 24.25375 23.72753C 22.079054 23.72753 20.290442 22.014187 20.197001 19.841499"></path></g></g></g><g id="g-root-tx_nexussys_1q88i3go71qmn-stroke" data-item-order="0" transform="translate(179, 38)"></g><g id="g-root-tx_inputana_1unenj0ohckcj-stroke" data-item-order="0" transform="translate(98, 308)"></g><g id="g-root-tx_taskexec_14143vgohckcn-stroke" data-item-order="0" transform="translate(218, 308)"></g><g id="g-root-tx_resultag_8z023gohcl4z-stroke" data-item-order="0" transform="translate(344, 308)"></g><g id="g-root-tx_outputpr_1hdtkf0ohckxz-stroke" data-item-order="0" transform="translate(464, 308)"></g><g id="g-root-tx_thenexus_1hby55oohclxh-stroke" data-item-order="0" transform="translate(92, 338)"></g><g id="g-root-tx_agentspe_qpnli4ohclxl-stroke" data-item-order="0" transform="translate(206, 338)"></g><g id="g-root-tx_thenexus_1uonlp8ohcmit-stroke" data-item-order="0" transform="translate(338, 350)"></g><g id="g-root-tx_userinpu_18n6cv0ohb6yz-stroke" data-item-order="0" transform="translate(50, 86)"></g></g></g><path id="w4g3258pb05ce" d="M65.283 12.757a.35.35 0 0 0 .584.157l5.203-5.141-6.183 3.523.396 1.461zm-2.216-11.7a.35.35 0 0 0-.522.305v3.111l3.276-1.868-2.754-1.548zm3.728 2.105l-4.25 2.421v2.445l6.391-3.644-2.141-1.222zm4.708 3.303a.35.35 0 0 0 0-.609l-1.592-.9-7.365 4.199v1.782a.35.35 0 0 0 .523.305l8.435-4.777z M44.542 2.513c0-.433.355-.783.792-.783s.792.35.792.783-.355.783-.792.783-.792-.35-.792-.783zm59.171 0c0-.433.355-.783.792-.783s.792.35.792.783-.355.783-.792.783-.792-.35-.792-.783zm-85.951 7.636h-1.27v-.487c-.276.201-.864.609-1.881.609-1.202 0-2.274-.794-2.137-2.078.118-1.106 1.153-1.584 1.848-1.727l2.17-.345c0-.539-.29-.956-1.064-1.006s-1.21.305-1.571 1.017l-1.124-.605c1.218-2.631 5.029-1.764 5.029.414v4.207zm-1.27-2.86c.006.396-.062 1.112-.819 1.59-.587.37-1.841.299-1.903-.395-.049-.555.461-.791.906-.898l1.816-.297zm72.662 2.86h-1.27v-.487c-.276.201-.864.609-1.881.609-1.202 0-2.274-.794-2.137-2.078.118-1.106 1.153-1.584 1.848-1.727l2.17-.345c0-.539-.29-.956-1.064-1.006s-1.21.305-1.571 1.017l-1.124-.605c1.218-2.631 5.029-1.764 5.029.414v4.207zm-1.27-2.86c.006.396-.062 1.112-.82 1.59-.587.37-1.841.299-1.903-.395-.049-.555.461-.791.906-.898l1.816-.297zM99.096 10.149H97.85v-8.45h1.246v4.895l2.68-2.559h1.738l-2.633 2.535 2.715 3.578h-1.556l-2.077-2.707-.867.844v1.863zm6.053-6.114h-1.255v6.113h1.255V4.035zm-59.2 0h-1.255v6.113h1.255V4.035zm5.584 6.113V1.697h1.255v2.695c.361-.346 1-.485 1.47-.485 1.452 0 2.477 1.082 2.457 2.448v3.792h-1.27v-3.68c0-.408-.214-1.339-1.315-1.339-.968 0-1.342.756-1.342 1.339v3.681h-1.255zm-4.76-4.894V4.039h.621a.45.45 0 0 0 .45-.45v-.855h1.251v1.305h1.309v1.215h-1.309v3.109c0 .293.105.664.648.664.365 0 .531-.035.736-.07v1.137s-.361.113-.857.113c-1.398 0-1.777-1.051-1.777-1.788V5.254h-1.071zM36.528 4.039h-1.394l2.191 6.106h1.125l1.234-3.918 1.238 3.918h1.129l2.188-6.106h-1.383l-1.359 3.93-1.256-3.93h-1.124l-1.242 3.957-1.348-3.957zM26.212 7.141c-.02 1.566 1.187 3.129 3.223 3.129 1.566 0 2.383-.918 2.734-1.719L31.172 8c-.315.399-.801 1.094-1.738 1.094-1.145 0-1.825-.781-1.891-1.52h4.625c.074-.284.148-.995-.03-1.559-.336-1.064-1.221-2.102-2.839-2.102s-3.088 1.152-3.088 3.227zm1.363-.75h3.348c-.055-.43-.566-1.301-1.623-1.301a1.79 1.79 0 0 0-1.725 1.301zm-8.758.75c.038 1.758 1.277 3.133 3.145 3.133 1.074 0 1.723-.477 1.961-.672v.547h1.242V1.703h-1.258v2.888c-.414-.36-1.062-.68-1.93-.68-1.91 0-3.198 1.473-3.16 3.23zm1.309-.08c0 1.119.723 1.978 1.836 1.978a1.88 1.88 0 0 0 1.94-1.904c0-1.371-1.011-1.99-1.972-1.99s-1.805.798-1.805 1.916zm76.683-.028C96.771 5.275 95.532 3.9 93.664 3.9c-1.074 0-1.723.477-1.961.672v-.547h-1.242v8.22h1.258V9.583c.414.36 1.063.68 1.93.68 1.91 0 3.198-1.473 3.16-3.23zm-1.309.08c0-1.119-.723-1.978-1.836-1.978a1.88 1.88 0 0 0-1.94 1.904c0 1.371 1.011 1.99 1.972 1.99S95.5 8.231 95.5 7.113zM106.441 10.173V4.036h1.254v.382c.361-.346 1-.485 1.47-.485 1.452 0 2.477 1.082 2.457 2.448v3.792h-1.27V6.492c0-.408-.214-1.339-1.315-1.339-.969 0-1.342.756-1.342 1.339v3.681h-1.254zm-30.383-.021V1.824h1.084l4.215 5.777V1.824h1.32v8.328h-1.094l-4.207-5.796v5.796h-1.319zM5.24 10.149H4V2.377h1.014l2.664 3.597 2.654-3.592h1.03v7.766h-1.256V4.762L7.678 8.068 5.24 4.742v5.407z" transform="translate(17, 425)" fill="#ababab88" stroke="none"></path></svg>